<mxfile host="app.diagrams.net" modified="2024-05-30T20:03:31.512Z" agent="Mozilla/5.0 (Macintosh; Intel Mac OS X 10_15_7) AppleWebKit/537.36 (KHTML, like Gecko) Chrome/125.0.0.0 Safari/537.36" version="24.4.10" etag="GRNB4T2zck0yjmhm5I6w" type="github">
  <diagram name="Page-1" id="A795cxs_CzemZQ4VJYxf">
    <mxGraphModel>
      <root>
        <mxCell id="0" />
        <mxCell id="1" parent="0" />
      </root>
    </mxGraphModel>
  </diagram>
</mxfile>
